<svg width="77" height="77" viewBox="0 0 77 77" fill="none" xmlns="http://www.w3.org/2000/svg">
<circle cx="38.5" cy="38.5" r="38.5" fill="black"/>
<path d="M14.024 25.454V38H12.386V25.454H14.024ZM19.2277 38.162C18.4717 38.162 17.7937 38.036 17.1937 37.784C16.5937 37.52 16.1197 37.16 15.7717 36.704C15.4237 36.236 15.2317 35.702 15.1957 35.102H16.8877C16.9357 35.594 17.1637 35.996 17.5717 36.308C17.9917 36.62 18.5377 36.776 19.2097 36.776C19.8337 36.776 20.3257 36.638 20.6857 36.362C21.0457 36.086 21.2257 35.738 21.2257 35.318C21.2257 34.886 21.0337 34.568 20.6497 34.364C20.2657 34.148 19.6717 33.938 18.8677 33.734C18.1357 33.542 17.5357 33.35 17.0677 33.158C16.6117 32.954 16.2157 32.66 15.8797 32.276C15.5557 31.88 15.3937 31.364 15.3937 30.728C15.3937 30.224 15.5437 29.762 15.8437 29.342C16.1437 28.922 16.5697 28.592 17.1217 28.352C17.6737 28.1 18.3037 27.974 19.0117 27.974C20.1037 27.974 20.9857 28.25 21.6577 28.802C22.3297 29.354 22.6897 30.11 22.7377 31.07H21.0997C21.0637 30.554 20.8537 30.14 20.4697 29.828C20.0977 29.516 19.5937 29.36 18.9577 29.36C18.3697 29.36 17.9017 29.486 17.5537 29.738C17.2057 29.99 17.0317 30.32 17.0317 30.728C17.0317 31.052 17.1337 31.322 17.3377 31.538C17.5537 31.742 17.8177 31.91 18.1297 32.042C18.4537 32.162 18.8977 32.3 19.4617 32.456C20.1697 32.648 20.7457 32.84 21.1897 33.032C21.6337 33.212 22.0117 33.488 22.3237 33.86C22.6477 34.232 22.8157 34.718 22.8277 35.318C22.8277 35.858 22.6777 36.344 22.3777 36.776C22.0777 37.208 21.6517 37.55 21.0997 37.802C20.5597 38.042 19.9357 38.162 19.2277 38.162ZM23.448 33.032C23.448 32.024 23.652 31.142 24.06 30.386C24.468 29.618 25.026 29.024 25.734 28.604C26.454 28.184 27.252 27.974 28.128 27.974C28.992 27.974 29.742 28.16 30.378 28.532C31.014 28.904 31.488 29.372 31.8 29.936V28.136H33.456V38H31.8V36.164C31.476 36.74 30.99 37.22 30.342 37.604C29.706 37.976 28.962 38.162 28.11 38.162C27.234 38.162 26.442 37.946 25.734 37.514C25.026 37.082 24.468 36.476 24.06 35.696C23.652 34.916 23.448 34.028 23.448 33.032ZM31.8 33.05C31.8 32.306 31.65 31.658 31.35 31.106C31.05 30.554 30.642 30.134 30.126 29.846C29.622 29.546 29.064 29.396 28.452 29.396C27.84 29.396 27.282 29.54 26.778 29.828C26.274 30.116 25.872 30.536 25.572 31.088C25.272 31.64 25.122 32.288 25.122 33.032C25.122 33.788 25.272 34.448 25.572 35.012C25.872 35.564 26.274 35.99 26.778 36.29C27.282 36.578 27.84 36.722 28.452 36.722C29.064 36.722 29.622 36.578 30.126 36.29C30.642 35.99 31.05 35.564 31.35 35.012C31.65 34.448 31.8 33.794 31.8 33.05ZM36.782 29.972C37.118 29.384 37.61 28.904 38.258 28.532C38.906 28.16 39.644 27.974 40.472 27.974C41.36 27.974 42.158 28.184 42.866 28.604C43.574 29.024 44.132 29.618 44.54 30.386C44.948 31.142 45.152 32.024 45.152 33.032C45.152 34.028 44.948 34.916 44.54 35.696C44.132 36.476 43.568 37.082 42.848 37.514C42.14 37.946 41.348 38.162 40.472 38.162C39.62 38.162 38.87 37.976 38.222 37.604C37.586 37.232 37.106 36.758 36.782 36.182V38H35.144V24.68H36.782V29.972ZM43.478 33.032C43.478 32.288 43.328 31.64 43.028 31.088C42.728 30.536 42.32 30.116 41.804 29.828C41.3 29.54 40.742 29.396 40.13 29.396C39.53 29.396 38.972 29.546 38.456 29.846C37.952 30.134 37.544 30.56 37.232 31.124C36.932 31.676 36.782 32.318 36.782 33.05C36.782 33.794 36.932 34.448 37.232 35.012C37.544 35.564 37.952 35.99 38.456 36.29C38.972 36.578 39.53 36.722 40.13 36.722C40.742 36.722 41.3 36.578 41.804 36.29C42.32 35.99 42.728 35.564 43.028 35.012C43.328 34.448 43.478 33.788 43.478 33.032ZM55.2281 32.69C55.2281 33.002 55.2101 33.332 55.1741 33.68H47.2901C47.3501 34.652 47.6801 35.414 48.2801 35.966C48.8921 36.506 49.6301 36.776 50.4941 36.776C51.2021 36.776 51.7901 36.614 52.2581 36.29C52.7381 35.954 53.0741 35.51 53.2661 34.958H55.0301C54.7661 35.906 54.2381 36.68 53.4461 37.28C52.6541 37.868 51.6701 38.162 50.4941 38.162C49.5581 38.162 48.7181 37.952 47.9741 37.532C47.2421 37.112 46.6661 36.518 46.2461 35.75C45.8261 34.97 45.6161 34.07 45.6161 33.05C45.6161 32.03 45.8201 31.136 46.2281 30.368C46.6361 29.6 47.2061 29.012 47.9381 28.604C48.6821 28.184 49.5341 27.974 50.4941 27.974C51.4301 27.974 52.2581 28.178 52.9781 28.586C53.6981 28.994 54.2501 29.558 54.6341 30.278C55.0301 30.986 55.2281 31.79 55.2281 32.69ZM53.5361 32.348C53.5361 31.724 53.3981 31.19 53.1221 30.746C52.8461 30.29 52.4681 29.948 51.9881 29.72C51.5201 29.48 50.9981 29.36 50.4221 29.36C49.5941 29.36 48.8861 29.624 48.2981 30.152C47.7221 30.68 47.3921 31.412 47.3081 32.348H53.5361ZM57.9482 24.68V38H56.3102V24.68H57.9482Z" fill="white"/>
<path d="M26.774 47.032C26.774 46.024 26.978 45.142 27.386 44.386C27.794 43.618 28.352 43.024 29.06 42.604C29.78 42.184 30.584 41.974 31.472 41.974C32.24 41.974 32.954 42.154 33.614 42.514C34.274 42.862 34.778 43.324 35.126 43.9V38.68H36.782V52H35.126V50.146C34.802 50.734 34.322 51.22 33.686 51.604C33.05 51.976 32.306 52.162 31.454 52.162C30.578 52.162 29.78 51.946 29.06 51.514C28.352 51.082 27.794 50.476 27.386 49.696C26.978 48.916 26.774 48.028 26.774 47.032ZM35.126 47.05C35.126 46.306 34.976 45.658 34.676 45.106C34.376 44.554 33.968 44.134 33.452 43.846C32.948 43.546 32.39 43.396 31.778 43.396C31.166 43.396 30.608 43.54 30.104 43.828C29.6 44.116 29.198 44.536 28.898 45.088C28.598 45.64 28.448 46.288 28.448 47.032C28.448 47.788 28.598 48.448 28.898 49.012C29.198 49.564 29.6 49.99 30.104 50.29C30.608 50.578 31.166 50.722 31.778 50.722C32.39 50.722 32.948 50.578 33.452 50.29C33.968 49.99 34.376 49.564 34.676 49.012C34.976 48.448 35.126 47.794 35.126 47.05ZM48.7301 46.69C48.7301 47.002 48.7121 47.332 48.6761 47.68H40.7921C40.8521 48.652 41.1821 49.414 41.7821 49.966C42.3941 50.506 43.1321 50.776 43.9961 50.776C44.7041 50.776 45.2921 50.614 45.7601 50.29C46.2401 49.954 46.5761 49.51 46.7681 48.958H48.5321C48.2681 49.906 47.7401 50.68 46.9481 51.28C46.1561 51.868 45.1721 52.162 43.9961 52.162C43.0601 52.162 42.2201 51.952 41.4761 51.532C40.7441 51.112 40.1681 50.518 39.7481 49.75C39.3281 48.97 39.1181 48.07 39.1181 47.05C39.1181 46.03 39.3221 45.136 39.7301 44.368C40.1381 43.6 40.7081 43.012 41.4401 42.604C42.1841 42.184 43.0361 41.974 43.9961 41.974C44.9321 41.974 45.7601 42.178 46.4801 42.586C47.2001 42.994 47.7521 43.558 48.1361 44.278C48.5321 44.986 48.7301 45.79 48.7301 46.69ZM47.0381 46.348C47.0381 45.724 46.9001 45.19 46.6241 44.746C46.3481 44.29 45.9701 43.948 45.4901 43.72C45.0221 43.48 44.5001 43.36 43.9241 43.36C43.0961 43.36 42.3881 43.624 41.8001 44.152C41.2241 44.68 40.8941 45.412 40.8101 46.348H47.0381ZM54.7442 50.488L57.8042 42.136H59.5502L55.6802 52H53.7722L49.9022 42.136H51.6662L54.7442 50.488Z" fill="#FFB803"/>
</svg>
