<svg width="22" height="22" viewBox="0 0 22 22" fill="none" xmlns="http://www.w3.org/2000/svg">
<path d="M19.9375 0H2.0625C0.928125 0 0 0.928125 0 2.0625V19.9375C0 21.0719 0.928125 22 2.0625 22H19.9375C21.0719 22 22 21.0719 22 19.9375V2.0625C22 0.928125 21.0719 0 19.9375 0ZM8.25 17.875H5.5V8.25H8.25V17.875ZM6.875 6.875C6.11462 6.875 5.5 6.26038 5.5 5.5C5.5 4.73962 6.11462 4.125 6.875 4.125C7.63538 4.125 8.25 4.73962 8.25 5.5C8.25 6.26038 7.63538 6.875 6.875 6.875ZM17.875 17.875H15.125V12.375C15.125 11.6146 14.5104 11 13.75 11C12.9896 11 12.375 11.6146 12.375 12.375V17.875H9.625V8.25H12.375V9.95638C12.9415 9.17813 13.8105 8.25 14.7812 8.25C16.4918 8.25 17.875 9.78862 17.875 11.6875V17.875Z" fill="#C4C4C4"/>
</svg>
