<svg width="124" height="19" viewBox="0 0 124 19" fill="none" xmlns="http://www.w3.org/2000/svg">
<path d="M3.032 1.272V18H0.848V1.272H3.032ZM9.97025 18.216C8.96225 18.216 8.05825 18.048 7.25825 17.712C6.45825 17.36 5.82625 16.88 5.36225 16.272C4.89825 15.648 4.64225 14.936 4.59425 14.136H6.85025C6.91425 14.792 7.21825 15.328 7.76225 15.744C8.32225 16.16 9.05025 16.368 9.94625 16.368C10.7783 16.368 11.4343 16.184 11.9143 15.816C12.3943 15.448 12.6343 14.984 12.6343 14.424C12.6343 13.848 12.3783 13.424 11.8663 13.152C11.3543 12.864 10.5623 12.584 9.49025 12.312C8.51425 12.056 7.71425 11.8 7.09025 11.544C6.48225 11.272 5.95425 10.88 5.50625 10.368C5.07425 9.84 4.85825 9.152 4.85825 8.304C4.85825 7.632 5.05825 7.016 5.45825 6.456C5.85825 5.896 6.42625 5.456 7.16225 5.136C7.89825 4.8 8.73825 4.632 9.68225 4.632C11.1383 4.632 12.3143 5 13.2103 5.736C14.1063 6.472 14.5863 7.48 14.6503 8.76H12.4663C12.4183 8.072 12.1383 7.52 11.6263 7.104C11.1303 6.688 10.4583 6.48 9.61025 6.48C8.82625 6.48 8.20225 6.648 7.73825 6.984C7.27425 7.32 7.04225 7.76 7.04225 8.304C7.04225 8.736 7.17825 9.096 7.45025 9.384C7.73825 9.656 8.09025 9.88 8.50625 10.056C8.93825 10.216 9.53025 10.4 10.2823 10.608C11.2263 10.864 11.9943 11.12 12.5863 11.376C13.1783 11.616 13.6823 11.984 14.0983 12.48C14.5303 12.976 14.7543 13.624 14.7703 14.424C14.7703 15.144 14.5703 15.792 14.1703 16.368C13.7703 16.944 13.2023 17.4 12.4663 17.736C11.7463 18.056 10.9143 18.216 9.97025 18.216ZM15.5973 11.376C15.5973 10.032 15.8693 8.856 16.4133 7.848C16.9573 6.824 17.7013 6.032 18.6453 5.472C19.6053 4.912 20.6693 4.632 21.8373 4.632C22.9893 4.632 23.9893 4.88 24.8373 5.376C25.6853 5.872 26.3173 6.496 26.7333 7.248V4.848H28.9413V18H26.7333V15.552C26.3013 16.32 25.6533 16.96 24.7893 17.472C23.9413 17.968 22.9493 18.216 21.8133 18.216C20.6453 18.216 19.5893 17.928 18.6453 17.352C17.7013 16.776 16.9573 15.968 16.4133 14.928C15.8693 13.888 15.5973 12.704 15.5973 11.376ZM26.7333 11.4C26.7333 10.408 26.5333 9.544 26.1333 8.808C25.7333 8.072 25.1893 7.512 24.5013 7.128C23.8293 6.728 23.0853 6.528 22.2693 6.528C21.4533 6.528 20.7093 6.72 20.0373 7.104C19.3653 7.488 18.8293 8.048 18.4293 8.784C18.0293 9.52 17.8293 10.384 17.8293 11.376C17.8293 12.384 18.0293 13.264 18.4293 14.016C18.8293 14.752 19.3653 15.32 20.0373 15.72C20.7093 16.104 21.4533 16.296 22.2693 16.296C23.0853 16.296 23.8293 16.104 24.5013 15.72C25.1893 15.32 25.7333 14.752 26.1333 14.016C26.5333 13.264 26.7333 12.392 26.7333 11.4ZM33.3761 7.296C33.8241 6.512 34.4801 5.872 35.3441 5.376C36.2081 4.88 37.1921 4.632 38.2961 4.632C39.4801 4.632 40.5441 4.912 41.4881 5.472C42.4321 6.032 43.1761 6.824 43.7201 7.848C44.2641 8.856 44.5361 10.032 44.5361 11.376C44.5361 12.704 44.2641 13.888 43.7201 14.928C43.1761 15.968 42.4241 16.776 41.4641 17.352C40.5201 17.928 39.4641 18.216 38.2961 18.216C37.1601 18.216 36.1601 17.968 35.2961 17.472C34.4481 16.976 33.8081 16.344 33.3761 15.576V18H31.1921V0.24H33.3761V7.296ZM42.3041 11.376C42.3041 10.384 42.1041 9.52 41.7041 8.784C41.3041 8.048 40.7601 7.488 40.0721 7.104C39.4001 6.72 38.6561 6.528 37.8401 6.528C37.0401 6.528 36.2961 6.728 35.6081 7.128C34.9361 7.512 34.3921 8.08 33.9761 8.832C33.5761 9.568 33.3761 10.424 33.3761 11.4C33.3761 12.392 33.5761 13.264 33.9761 14.016C34.3921 14.752 34.9361 15.32 35.6081 15.72C36.2961 16.104 37.0401 16.296 37.8401 16.296C38.6561 16.296 39.4001 16.104 40.0721 15.72C40.7601 15.32 41.3041 14.752 41.7041 14.016C42.1041 13.264 42.3041 12.384 42.3041 11.376ZM57.9708 10.92C57.9708 11.336 57.9468 11.776 57.8988 12.24H47.3868C47.4668 13.536 47.9068 14.552 48.7068 15.288C49.5228 16.008 50.5068 16.368 51.6588 16.368C52.6028 16.368 53.3868 16.152 54.0108 15.72C54.6508 15.272 55.0988 14.68 55.3548 13.944H57.7068C57.3548 15.208 56.6508 16.24 55.5948 17.04C54.5388 17.824 53.2268 18.216 51.6588 18.216C50.4108 18.216 49.2908 17.936 48.2988 17.376C47.3228 16.816 46.5548 16.024 45.9948 15C45.4348 13.96 45.1548 12.76 45.1548 11.4C45.1548 10.04 45.4268 8.848 45.9708 7.824C46.5148 6.8 47.2748 6.016 48.2508 5.472C49.2428 4.912 50.3788 4.632 51.6588 4.632C52.9068 4.632 54.0108 4.904 54.9708 5.448C55.9308 5.992 56.6668 6.744 57.1788 7.704C57.7068 8.648 57.9708 9.72 57.9708 10.92ZM55.7148 10.464C55.7148 9.632 55.5308 8.92 55.1628 8.328C54.7948 7.72 54.2908 7.264 53.6508 6.96C53.0268 6.64 52.3308 6.48 51.5628 6.48C50.4588 6.48 49.5148 6.832 48.7308 7.536C47.9628 8.24 47.5228 9.216 47.4108 10.464H55.7148ZM61.5976 0.24V18H59.4136V0.24H61.5976Z" fill="#FFB803"/>
<path d="M73.7679 14.28H66.4719L65.1279 18H62.8239L68.8719 1.368H71.3919L77.4159 18H75.1119L73.7679 14.28ZM73.1439 12.504L70.1199 4.056L67.0959 12.504H73.1439ZM82.2358 0.24V18H80.0518V0.24H82.2358ZM90.854 15.984L94.934 4.848H97.262L92.102 18H89.558L84.398 4.848H86.75L90.854 15.984ZM111.411 10.92C111.411 11.336 111.387 11.776 111.339 12.24H100.827C100.907 13.536 101.347 14.552 102.147 15.288C102.963 16.008 103.947 16.368 105.099 16.368C106.043 16.368 106.827 16.152 107.451 15.72C108.091 15.272 108.539 14.68 108.795 13.944H111.147C110.795 15.208 110.091 16.24 109.035 17.04C107.979 17.824 106.667 18.216 105.099 18.216C103.851 18.216 102.731 17.936 101.739 17.376C100.763 16.816 99.9951 16.024 99.4351 15C98.8751 13.96 98.5951 12.76 98.5951 11.4C98.5951 10.04 98.8671 8.848 99.4111 7.824C99.9551 6.8 100.715 6.016 101.691 5.472C102.683 4.912 103.819 4.632 105.099 4.632C106.347 4.632 107.451 4.904 108.411 5.448C109.371 5.992 110.107 6.744 110.619 7.704C111.147 8.648 111.411 9.72 111.411 10.92ZM109.155 10.464C109.155 9.632 108.971 8.92 108.603 8.328C108.235 7.72 107.731 7.264 107.091 6.96C106.467 6.64 105.771 6.48 105.003 6.48C103.899 6.48 102.955 6.832 102.171 7.536C101.403 8.24 100.963 9.216 100.851 10.464H109.155ZM118.95 18.216C117.942 18.216 117.038 18.048 116.238 17.712C115.438 17.36 114.806 16.88 114.342 16.272C113.878 15.648 113.622 14.936 113.574 14.136H115.83C115.894 14.792 116.198 15.328 116.742 15.744C117.302 16.16 118.03 16.368 118.926 16.368C119.758 16.368 120.414 16.184 120.894 15.816C121.374 15.448 121.614 14.984 121.614 14.424C121.614 13.848 121.358 13.424 120.846 13.152C120.334 12.864 119.542 12.584 118.47 12.312C117.494 12.056 116.694 11.8 116.07 11.544C115.462 11.272 114.934 10.88 114.486 10.368C114.054 9.84 113.838 9.152 113.838 8.304C113.838 7.632 114.038 7.016 114.438 6.456C114.838 5.896 115.406 5.456 116.142 5.136C116.878 4.8 117.718 4.632 118.662 4.632C120.118 4.632 121.294 5 122.19 5.736C123.086 6.472 123.566 7.48 123.63 8.76H121.446C121.398 8.072 121.118 7.52 120.606 7.104C120.11 6.688 119.438 6.48 118.59 6.48C117.806 6.48 117.182 6.648 116.718 6.984C116.254 7.32 116.022 7.76 116.022 8.304C116.022 8.736 116.158 9.096 116.43 9.384C116.718 9.656 117.07 9.88 117.486 10.056C117.918 10.216 118.51 10.4 119.262 10.608C120.206 10.864 120.974 11.12 121.566 11.376C122.158 11.616 122.662 11.984 123.078 12.48C123.51 12.976 123.734 13.624 123.75 14.424C123.75 15.144 123.55 15.792 123.15 16.368C122.75 16.944 122.182 17.4 121.446 17.736C120.726 18.056 119.894 18.216 118.95 18.216Z" fill="white"/>
</svg>
