<svg width="120" height="54" viewBox="0 0 120 54" fill="none" xmlns="http://www.w3.org/2000/svg">
<path d="M29.7969 7.47418L23.4831 27.7507H20.0123L15.1384 11.6553L10.2646 27.7507H6.79382L0.443054 7.47418H3.8769L8.52921 24.4946L13.5507 7.47418H16.9846L21.8954 24.5316L26.4738 7.47418H29.7969ZM49.3777 16.8354C49.3777 17.4768 49.3407 18.1551 49.2669 18.8705H33.0946C33.2177 20.8685 33.8946 22.4349 35.1254 23.5696C36.3807 24.6796 37.8946 25.2346 39.6669 25.2346C41.1192 25.2346 42.3254 24.9016 43.2854 24.2356C44.27 23.5449 44.9592 22.6322 45.3531 21.4975H48.9715C48.43 23.4463 47.3469 25.0373 45.7223 26.2707C44.0977 27.4794 42.0792 28.0837 39.6669 28.0837C37.7469 28.0837 36.0238 27.652 34.4977 26.7887C32.9961 25.9253 31.8146 24.7043 30.9531 23.1256C30.0915 21.5222 29.6607 19.6722 29.6607 17.5754C29.6607 15.4787 30.0792 13.641 30.9161 12.0623C31.7531 10.4836 32.9223 9.2749 34.4238 8.43621C35.95 7.57285 37.6977 7.14117 39.6669 7.14117C41.5869 7.14117 43.2854 7.56052 44.7623 8.39921C46.2392 9.2379 47.3715 10.3973 48.1592 11.8773C48.9715 13.3327 49.3777 14.9854 49.3777 16.8354ZM45.9069 16.1324C45.9069 14.8497 45.6238 13.752 45.0577 12.8393C44.4915 11.902 43.7161 11.1989 42.7315 10.7303C41.7715 10.2369 40.7007 9.99025 39.5192 9.99025C37.8207 9.99025 36.3684 10.5329 35.1623 11.6183C33.9807 12.7037 33.3038 14.2084 33.1315 16.1324H45.9069Z" fill="#FFB803"/>
<path d="M64.4835 14.4674C65.4189 14.6154 66.2682 14.9977 67.0312 15.6144C67.8189 16.2311 68.4343 16.9958 68.8774 17.9084C69.3451 18.8211 69.5789 19.7955 69.5789 20.8315C69.5789 22.1389 69.2466 23.3229 68.582 24.3836C67.9174 25.4196 66.9451 26.246 65.6651 26.8627C64.4097 27.4547 62.9205 27.7507 61.1974 27.7507H51.5974V1.96104H60.8281C62.5758 1.96104 64.0651 2.25704 65.2958 2.84906C66.5266 3.41641 67.4497 4.19343 68.0651 5.18012C68.6805 6.16681 68.9882 7.27684 68.9882 8.51021C68.9882 10.0396 68.5697 11.3099 67.7328 12.3213C66.9205 13.308 65.8374 14.0233 64.4835 14.4674ZM54.9574 13.0983H60.6066C62.182 13.0983 63.4005 12.7283 64.262 11.9883C65.1235 11.2483 65.5543 10.2246 65.5543 8.91722C65.5543 7.60985 65.1235 6.58616 64.262 5.84614C63.4005 5.10612 62.1574 4.73611 60.5328 4.73611H54.9574V13.0983ZM60.902 24.9756C62.5758 24.9756 63.8805 24.581 64.8158 23.7916C65.7512 23.0022 66.2189 21.9046 66.2189 20.4985C66.2189 19.0678 65.7266 17.9454 64.742 17.1314C63.7574 16.2927 62.4405 15.8734 60.7912 15.8734H54.9574V24.9756H60.902ZM92.7032 16.8354C92.7032 17.4768 92.6663 18.1551 92.5925 18.8705H76.4201C76.5432 20.8685 77.2201 22.4349 78.4509 23.5696C79.7063 24.6796 81.2201 25.2346 82.9925 25.2346C84.4448 25.2346 85.6509 24.9016 86.6109 24.2356C87.5955 23.5449 88.2848 22.6322 88.6786 21.4975H92.2971C91.7555 23.4463 90.6725 25.0373 89.0478 26.2707C87.4232 27.4794 85.4048 28.0837 82.9925 28.0837C81.0725 28.0837 79.3494 27.652 77.8232 26.7887C76.3217 25.9253 75.1402 24.7043 74.2786 23.1256C73.4171 21.5222 72.9863 19.6722 72.9863 17.5754C72.9863 15.4787 73.4048 13.641 74.2417 12.0623C75.0786 10.4836 76.2478 9.27489 77.7494 8.4362C79.2755 7.57285 81.0232 7.14117 82.9925 7.14117C84.9125 7.14117 86.6109 7.56051 88.0878 8.3992C89.5648 9.23789 90.6971 10.3973 91.4848 11.8773C92.2971 13.3327 92.7032 14.9854 92.7032 16.8354ZM89.2325 16.1324C89.2325 14.8497 88.9494 13.752 88.3832 12.8393C87.8171 11.902 87.0417 11.1989 86.0571 10.7303C85.0971 10.2369 84.0263 9.99024 82.8448 9.99024C81.1463 9.99024 79.694 10.5329 78.4878 11.6183C77.3063 12.7036 76.6294 14.2084 76.4571 16.1324H89.2325ZM100.498 0.369995V27.7507H97.1383V0.369995H100.498Z" fill="white"/>
<path d="M3.12616 42.2058C3.12616 40.1337 3.54462 38.3207 4.38154 36.7666C5.21847 35.1879 6.36308 33.9669 7.81539 33.1035C9.29231 32.2402 10.9415 31.8085 12.7631 31.8085C14.3385 31.8085 15.8031 32.1785 17.1569 32.9185C18.5108 33.6339 19.5446 34.5836 20.2585 35.7676V25.0373H23.6554V52.418H20.2585V48.6069C19.5939 49.8156 18.6092 50.8147 17.3046 51.604C16 52.3687 14.4739 52.751 12.7262 52.751C10.9292 52.751 9.29231 52.307 7.81539 51.419C6.36308 50.531 5.21847 49.2853 4.38154 47.6819C3.54462 46.0785 3.12616 44.2532 3.12616 42.2058ZM20.2585 42.2428C20.2585 40.7134 19.9508 39.3814 19.3354 38.2467C18.72 37.112 17.8831 36.2486 16.8246 35.6566C15.7908 35.0399 14.6462 34.7316 13.3908 34.7316C12.1354 34.7316 10.9908 35.0276 9.95693 35.6196C8.92308 36.2116 8.09847 37.075 7.48308 38.2097C6.8677 39.3444 6.56001 40.6764 6.56001 42.2058C6.56001 43.7598 6.8677 45.1165 7.48308 46.2759C8.09847 47.4106 8.92308 48.2863 9.95693 48.9029C10.9908 49.495 12.1354 49.791 13.3908 49.791C14.6462 49.791 15.7908 49.495 16.8246 48.9029C17.8831 48.2863 18.72 47.4106 19.3354 46.2759C19.9508 45.1165 20.2585 43.7721 20.2585 42.2428ZM48.1643 41.5028C48.1643 42.1441 48.1274 42.8225 48.0534 43.5378H31.8811C32.0042 45.5359 32.6811 47.1022 33.912 48.2369C35.1674 49.347 36.6812 49.902 38.4535 49.902C39.9059 49.902 41.112 49.569 42.072 48.9029C43.0566 48.2123 43.7459 47.2996 44.1397 46.1649H47.7582C47.2166 48.1136 46.1335 49.7046 44.5089 50.938C42.8843 52.1467 40.8659 52.751 38.4535 52.751C36.5335 52.751 34.8105 52.3194 33.2843 51.456C31.7826 50.5927 30.6011 49.3716 29.7395 47.7929C28.878 46.1895 28.4472 44.3395 28.4472 42.2428C28.4472 40.146 28.8657 38.3083 29.7026 36.7296C30.5395 35.1509 31.7088 33.9422 33.2103 33.1035C34.7366 32.2402 36.4843 31.8085 38.4535 31.8085C40.3735 31.8085 42.072 32.2278 43.5489 33.0665C45.0259 33.9052 46.1582 35.0646 46.9459 36.5446C47.7582 38 48.1643 39.6527 48.1643 41.5028ZM44.6935 40.7997C44.6935 39.517 44.4105 38.4193 43.8442 37.5066C43.278 36.5693 42.5026 35.8663 41.5182 35.3976C40.5582 34.9042 39.4872 34.6576 38.3057 34.6576C36.6072 34.6576 35.1549 35.2003 33.9488 36.2856C32.7672 37.371 32.0903 38.8757 31.918 40.7997H44.6935ZM60.5009 49.3099L66.7779 32.1415H70.3594L62.4209 52.418H58.5071L50.5686 32.1415H54.1871L60.5009 49.3099Z" fill="#FFB803"/>
</svg>
