<svg width="22" height="22" viewBox="0 0 22 22" fill="none" xmlns="http://www.w3.org/2000/svg">
<path d="M10.9993 0.00281937C4.92494 0.00281937 0 5.0523 0 11.2803C0 16.2635 3.1513 20.4897 7.52216 21.9812C8.07212 22.0855 8.27423 21.7359 8.27423 21.4384C8.27423 21.1692 8.26323 20.2811 8.25911 19.3394C5.19855 20.0217 4.55372 18.0087 4.55372 18.0087C4.05325 16.7047 3.33279 16.3579 3.33279 16.3579C2.3346 15.6573 3.40841 15.6728 3.40841 15.6728C4.51247 15.7518 5.09406 16.8344 5.09406 16.8344C6.07575 18.5585 7.6679 18.0594 8.29486 17.7719C8.39385 17.0431 8.67846 16.5454 8.99331 16.2635C6.55009 15.9787 3.98175 15.0117 3.98175 10.6896C3.98175 9.45896 4.4121 8.45245 5.11468 7.66303C5.00056 7.37827 4.62384 6.2322 5.22055 4.67873C5.22055 4.67873 6.14449 4.37565 8.24674 5.83467C9.12393 5.58516 10.0644 5.4597 10.9993 5.45547C11.9343 5.4597 12.8761 5.58516 13.7546 5.83467C15.8541 4.37565 16.7767 4.67873 16.7767 4.67873C17.3748 6.2322 16.9994 7.37968 16.8853 7.66303C17.5907 8.45245 18.0169 9.45896 18.0169 10.6896C18.0169 15.0216 15.443 15.9745 12.9943 16.2536C13.3889 16.6032 13.7409 17.2897 13.7409 18.3414C13.7409 19.8497 13.7285 21.0649 13.7285 21.4356C13.7285 21.7359 13.9265 22.0869 14.4847 21.9769C18.8528 20.4841 22 16.2579 22 11.2775C22 5.04948 17.0751 0 11.0007 0L10.9993 0.00281937Z" fill="#C4C4C4"/>
</svg>
