<svg width="18" height="12" viewBox="0 0 18 12" fill="none" xmlns="http://www.w3.org/2000/svg">
<path d="M14.9996 0H3.00038C1.35 0 0 0.9 0 2.00025V9.99975C0 11.1007 1.35 12 3.00038 12H14.9996C16.65 12 18 11.1007 18 9.99975V2.00025C18 0.9 16.65 0 14.9996 0ZM14.9996 1.5C15.1403 1.5 15.273 1.527 15.3866 1.57425L8.99887 5.09475L2.61225 1.57425C2.72588 1.527 2.85862 1.5 2.99925 1.5H14.9985H14.9996ZM3.00038 10.5C2.96662 10.5 2.93288 10.4985 2.90025 10.4955L6.86588 6.828L6.35175 6.48525L2.25 9.21975V2.058L9 7.5L15.75 2.058V9.21975L11.6483 6.48525L11.1341 6.828L15.0997 10.4955C15.0671 10.4985 15.0334 10.5 15.0007 10.5H3.0015H3.00038Z" fill="#C4C4C4"/>
</svg>
